<svg xmlns="http://www.w3.org/2000/svg" viewBox="0 0 512 512">

    <title id="title">Morsely Icon</title>
    <desc id="desc">A rounded chat bubble containing the Morse code for the word Morsely.</desc>
    <defs>
        <linearGradient id="bg" x1="0" y1="0" x2="1" y2="1">
            <stop offset="0" stop-color="#5B7CFF"/>
            <stop offset="1" stop-color="#7C3AED"/>
        </linearGradient>
        <filter id="softShadow" x="-20%" y="-20%" width="140%" height="140%">
            <feDropShadow dx="0" dy="10" stdDeviation="14" flood-opacity="0.18"/>
        </filter>
    </defs>

    <!-- Background -->
    <rect width="512" height="512" rx="96" fill="url(#bg)"/>

    <!-- Chat bubble -->
    <g>
        <rect x="64" y="80" width="384" height="300" rx="64" fill="#fff"/>
        <path d="M140 340 L115 390 Q112 396 118 396 L176 364 Z" fill="#fff"/>
    </g>

    <!-- Line 1: Mo, total width 280px -->
    <g fill="#111">
        <rect x="116" y="155" width="36.8" height="11.5" rx="5.75"/>
        <rect x="169.2" y="155" width="36.8" height="11.5" rx="5.75"/>
        <rect x="264.8" y="155" width="36.8" height="11.5" rx="5.75"/>
        <rect x="314.0" y="155" width="36.8" height="11.5" rx="5.75"/>
        <rect x="363.2" y="155" width="36.8" height="11.5" rx="5.75"/>
    </g>

    <!-- Line 2: r s e with g3 and g6 = 74.1px -->
    <g fill="#111">
        <circle cx="120" cy="224" r="5.75"/>
        <rect x="134.75" y="218" width="36.8" height="11.5" rx="5.75"/>
        <circle cx="186.3" cy="224" r="5.75"/>
        <circle cx="271.9" cy="224" r="5.75"/>
        <circle cx="292.65" cy="224" r="5.75"/>
        <circle cx="313.4" cy="224" r="5.75"/>
        <circle cx="392.95" cy="224" r="5.75"/>
    </g>

    <!-- Line 3: l y, total width 280px -->
    <g fill="#111">
        <circle cx="120" cy="293" r="5.75"/>
        <rect x="132.8" y="287" width="36.8" height="11.5" rx="5.75"/>
        <circle cx="182.4" cy="293" r="5.75"/>
        <circle cx="201.2" cy="293" r="5.75"/>
        <rect x="251.2" y="287" width="36.8" height="11.5" rx="5.75"/>
        <circle cx="300.8" cy="293" r="5.75"/>
        <rect x="313.6" y="287" width="36.8" height="11.5" rx="5.75"/>
        <rect x="363.2" y="287" width="36.8" height="11.5" rx="5.75"/>
    </g>
</svg>
